<svg width="42" height="41" viewBox="0 0 42 41" fill="none" xmlns="http://www.w3.org/2000/svg">
<path d="M37.6651 10.1786C36.4403 10.707 35.1074 11.0872 33.7346 11.2353C35.1599 10.3885 36.2273 9.05071 36.7365 7.47288C35.399 8.26856 33.9337 8.8265 32.4057 9.12195C31.7671 8.43922 30.9947 7.89532 30.1366 7.52415C29.2786 7.15298 28.3533 6.96249 27.4185 6.96456C23.636 6.96456 20.594 10.0305 20.594 13.793C20.594 14.3213 20.6581 14.8497 20.7621 15.358C15.0985 15.0618 10.0472 12.3561 6.68901 8.21337C6.07711 9.25851 5.75646 10.4485 5.76041 11.6596C5.76041 14.0291 6.96519 16.1185 8.80238 17.3473C7.71969 17.3047 6.66236 17.0071 5.71638 16.4787V16.5628C5.71638 19.8809 8.0619 22.6307 11.1879 23.2631C10.601 23.4156 9.99718 23.4936 9.39076 23.4953C8.94647 23.4953 8.5262 23.4513 8.10192 23.3912C8.96649 26.097 11.4841 28.0622 14.4821 28.1263C12.1365 29.9635 9.19864 31.0442 6.00857 31.0442C5.4362 31.0442 4.90785 31.0242 4.3595 30.9601C7.38546 32.9014 10.9758 34.0221 14.8423 34.0221C27.3944 34.0221 34.2629 23.6234 34.2629 14.5975C34.2629 14.3013 34.2629 14.0051 34.2429 13.7089C35.5717 12.7363 36.7365 11.5315 37.6651 10.1786Z" fill="white"/>
</svg>
