<svg width="42" height="41" viewBox="0 0 42 41" fill="none" xmlns="http://www.w3.org/2000/svg">
<path d="M35.7182 4.48291H6.2591C5.55064 4.48291 4.97827 5.05528 4.97827 5.76374V35.2229C4.97827 35.9313 5.55064 36.5037 6.2591 36.5037H35.7182C36.4267 36.5037 36.9991 35.9313 36.9991 35.2229V5.76374C36.9991 5.05528 36.4267 4.48291 35.7182 4.48291ZM14.4764 31.7686H9.72535V16.4867H14.4764V31.7686ZM12.1029 14.3973C11.5582 14.3973 11.0258 14.2358 10.573 13.9332C10.1201 13.6307 9.76715 13.2006 9.55873 12.6974C9.3503 12.1942 9.29577 11.6405 9.40202 11.1063C9.50828 10.5721 9.77055 10.0815 10.1557 9.69634C10.5408 9.31121 11.0315 9.04894 11.5657 8.94268C12.0998 8.83643 12.6535 8.89096 13.1567 9.09939C13.6599 9.30782 14.09 9.66078 14.3926 10.1136C14.6952 10.5665 14.8567 11.0989 14.8567 11.6436C14.8527 13.1645 13.6199 14.3973 12.1029 14.3973ZM32.264 31.7686H27.5169V24.3358C27.5169 22.5626 27.4849 20.2852 25.0473 20.2852C22.5777 20.2852 22.1974 22.2144 22.1974 24.2077V31.7686H17.4544V16.4867H22.0093V18.5761H22.0734C22.7058 17.3753 24.2548 16.1065 26.5683 16.1065C31.3794 16.1065 32.264 19.2725 32.264 23.3872V31.7686Z" fill="white"/>
</svg>
