<svg width="42" height="41" viewBox="0 0 42 41" fill="none" xmlns="http://www.w3.org/2000/svg">
<path d="M35.7304 4.48291H6.27131C5.56285 4.48291 4.99048 5.05528 4.99048 5.76374V35.2229C4.99048 35.9313 5.56285 36.5037 6.27131 36.5037H35.7304C36.4389 36.5037 37.0113 35.9313 37.0113 35.2229V5.76374C37.0113 5.05528 36.4389 4.48291 35.7304 4.48291ZM32.032 13.829H29.4744C27.4691 13.829 27.0808 14.7816 27.0808 16.1825V19.2685H31.8679L31.2435 24.0996H27.0808V36.5037H22.0896V24.1036H17.9149V19.2685H22.0896V15.7062C22.0896 11.5715 24.6152 9.31805 28.3056 9.31805C30.0748 9.31805 31.5917 9.45013 32.036 9.51017V13.829H32.032Z" fill="white"/>
</svg>
