<svg width="47" height="46" viewBox="0 0 47 46" fill="none" xmlns="http://www.w3.org/2000/svg">
<path d="M23.5202 26.8333C27.7483 26.8333 31.1868 23.3948 31.1868 19.1667C31.1868 14.9385 27.7483 11.5 23.5202 11.5C19.292 11.5 15.8535 14.9385 15.8535 19.1667C15.8535 23.3948 19.292 26.8333 23.5202 26.8333ZM23.5202 15.3333C25.6343 15.3333 27.3535 17.0526 27.3535 19.1667C27.3535 21.2807 25.6343 23 23.5202 23C21.4061 23 19.6868 21.2807 19.6868 19.1667C19.6868 17.0526 21.4061 15.3333 23.5202 15.3333Z" fill="white"/>
<path d="M22.4086 41.8102C22.733 42.0418 23.1217 42.1664 23.5203 42.1664C23.9189 42.1664 24.3075 42.0418 24.6319 41.8102C25.2146 41.3981 38.9092 31.51 38.8536 19.1667C38.8536 10.7122 31.9747 3.83333 23.5203 3.83333C15.0659 3.83333 8.18694 10.7122 8.18694 19.1571C8.13135 31.51 21.8259 41.3981 22.4086 41.8102ZM23.5203 7.66666C29.8625 7.66666 35.0203 12.8244 35.0203 19.1762C35.0605 27.6824 26.6099 35.3203 23.5203 37.8254C20.4325 35.3184 11.98 27.6786 12.0203 19.1667C12.0203 12.8244 17.178 7.66666 23.5203 7.66666Z" fill="white"/>
</svg>
